<svg xmlns="http://www.w3.org/2000/svg" viewBox="0 0 512 512"><defs><clipPath id="a"><rect width="127.8" height="101.45" x="251.47" y="326.07" fill="none" rx="3.58"/></clipPath></defs><g data-name="Coffee shop"><path fill="#ffc62f" d="M67.23 112.93l6.82-15.56a3.25 3.25 0 015.94 0l6.82 15.56a3.24 3.24 0 001.67 1.67L104 121.42a3.24 3.24 0 010 5.94l-15.56 6.82a3.24 3.24 0 00-1.67 1.67L80 151.41a3.24 3.24 0 01-5.94 0l-6.82-15.56a3.24 3.24 0 00-1.67-1.67L50 127.36a3.25 3.25 0 010-5.94l15.56-6.82A3.24 3.24 0 0067.23 112.93zM443.11 329.9L448 318.78a2.32 2.32 0 014.25 0l4.87 11.12a2.34 2.34 0 001.19 1.19L469.41 336a2.31 2.31 0 010 4.24l-11.12 4.88a2.3 2.3 0 00-1.19 1.19l-4.87 11.12a2.32 2.32 0 01-4.25 0l-4.87-11.12a2.3 2.3 0 00-1.19-1.19L430.8 340.2a2.31 2.31 0 010-4.24l11.12-4.87A2.34 2.34 0 00443.11 329.9zM369.78 41l3.91-8.93a1.86 1.86 0 013.41 0L381 41a1.86 1.86 0 001 1l8.92 3.92a1.85 1.85 0 010 3.4L382 53.22a1.87 1.87 0 00-1 1L377.1 63.1a1.86 1.86 0 01-3.41 0l-3.91-8.92a1.87 1.87 0 00-1-1l-8.92-3.91a1.86 1.86 0 010-3.4L368.82 42A1.86 1.86 0 00369.78 41z"/><path fill="#fb6e38" d="M450.6 162.87v18a3.1 3.1 0 003.09 3.09h17.09a3.09 3.09 0 010 6.17H453.69a3.1 3.1 0 00-3.09 3.09v18.22a3.09 3.09 0 01-3.08 3.09h-.42a3.09 3.09 0 01-3.08-3.09V193.23a3.1 3.1 0 00-3.09-3.09H423.84a3.09 3.09 0 010-6.17h17.09a3.1 3.1 0 003.09-3.09v-18a3.08 3.08 0 013.08-3.09h.42A3.08 3.08 0 01450.6 162.87zM145 44.12V55.48a1.94 1.94 0 001.94 2h10.78a2 2 0 110 3.9H147A1.94 1.94 0 00145 63.27V74.76a2 2 0 01-1.95 1.95h-.26a2 2 0 01-2-1.95V63.27a1.94 1.94 0 00-1.94-1.94H128.13a2 2 0 010-3.9h10.78a1.94 1.94 0 001.94-2V44.12a2 2 0 012-1.94h.26A1.94 1.94 0 01145 44.12zM46.56 418.46v13.12a2.25 2.25 0 002.25 2.25H61.25a2.25 2.25 0 012.25 2.25h0a2.25 2.25 0 01-2.25 2.25H48.81a2.25 2.25 0 00-2.25 2.25v13.27a2.25 2.25 0 01-2.25 2.25H44a2.25 2.25 0 01-2.25-2.25V440.58a2.25 2.25 0 00-2.25-2.25H27.06a2.25 2.25 0 01-2.25-2.25h0a2.25 2.25 0 012.25-2.25H39.51a2.25 2.25 0 002.25-2.25V418.46A2.25 2.25 0 0144 416.21h.3A2.25 2.25 0 0146.56 418.46z"/><path fill="#969a3b" d="M478.92 311.29c-4.32 0-11.59-2.31-17.84-15.51-5.35-11.33 2.76-17 10.6-22.49s14.69-10.58 15-20.27c-6.26 3.6-14.2 2.3-17.66-2.26-6-7.95 14.78-15.23 19.7-3.52a14.18 14.18 0 002.51-8.77c-.12-14.76-20-20.61-20.2-20.67a1.5 1.5 0 11.82-2.88 43.51 43.51 0 0111 5.21c7.38 4.88 11.31 11.22 11.37 18.32 0 5.07-1.62 9.38-4.63 12.35a19.83 19.83 0 01-.17 5c-3.1 20.58-33.69 21.56-25.6 38.67s17.32 13.54 17.71 13.38a1.51 1.51 0 012 .81 1.49 1.49 0 01-.78 1.95A10.11 10.11 0 01478.92 311.29zm-.31-67.17c-3 0-6 1.13-7.19 2.7a1.53 1.53 0 000 2.13c2.7 3.56 9.85 4.51 14.95.68C485.37 245.85 482.38 244.12 478.61 244.12zM66.61 408.92a1.5 1.5 0 01-1.2-2.4c.16-.21 15-20.41 6.31-31.85-5.53 5.4-14.79 8.43-19.27 6.56-5.82-2.44-4-11.21 2.41-14.52 5.57-2.87 11.94-.51 16.72 3.5 3-4.39 1.33-8.18-2.87-11.4-11.77-9-18.32-18.45-18-25.87.19-4.16 2.4-7.6 6.58-10.22a1.5 1.5 0 011.59 2.55c-12.46 7.81 0 22.26 11.63 31.16 6.47 5 7 10.76 3.19 15.94 4.34 5.22 4.94 12.63 1.69 21.68a61.23 61.23 0 01-7.61 14.27A1.52 1.52 0 0166.61 408.92zm-6.47-40.48c-7.13 0-10.49 8.36-6.53 10 3.11 1.31 11.26-1.27 16-5.95C67.12 370.37 63.54 368.44 60.14 368.44zM40.93 252.32s12.52-8.57 12.52-21.94-2.06-19.2-3.6-19.37-14.74 19.2-14.92 31.37S34.42 258.59 40.93 252.32z"/><path fill="#969a3b" d="M33.84,248.55s-5.34-9.21-14.7-9.92-13.55.43-13.75,1.5,12.66,11.34,21.18,12.1S37.89,253.44,33.84,248.55Z"/><path fill="#969a3b" d="M44.16,278.32a1.5,1.5,0,0,1-1.35-.84C27.33,246.06,31.71,208.33,31.75,208a1.5,1.5,0,0,1,3,.36c0,.37-4.31,37.24,10.77,67.84A1.5,1.5,0,0,1,44.16,278.32Z"/><circle cx="32.34" cy="204.82" r="11.82" fill="#fb6e38"/><path fill="#969a3b" d="M442.35,108.6s-14.19-9.71-14.19-24.87,2.33-21.76,4.08-22S449,83.54,449.15,97.33,449.73,115.72,442.35,108.6Z"/><path fill="#969a3b" d="M450.39,104.33s6.05-10.44,16.66-11.24,15.36.49,15.59,1.7-14.36,12.85-24,13.71S445.8,109.87,450.39,104.33Z"/><path fill="#969a3b" d="M438.69,137.87a1.5,1.5,0,0,1-1.34-2.16c17.13-34.78,12.28-76.6,12.23-77a1.5,1.5,0,1,1,3-.36c.05.43,5,43.14-12.52,78.71A1.5,1.5,0,0,1,438.69,137.87Z"/><circle cx="452.09" cy="54.76" r="13.39" fill="#fb6e38"/><path fill="#969a3b" d="M456.38 424.28s-10.64-9.72-8.87-22.31 4.48-17.8 5.95-17.75 11.34 20 9.89 31.5S461.68 431.05 456.38 424.28zM473.36 368.91s5.95 9.28 2.16 18.23-6.81 12.26-7.89 11.94-4.43-17-1.1-25.21S470.77 362.87 473.36 368.91z"/><path fill="#969a3b" d="M464.67,419.7s9.4-12,22.78-11.1,19.09,3.31,19.16,4.86-20.18,13.52-32.37,12.9S458,425.82,464.67,419.7Z"/><path fill="#969a3b" d="M450.1,448.42a1.5,1.5,0,0,1-1.23-2.35C467.1,419.28,468,384,468,383.68a1.5,1.5,0,0,1,3,.06c0,.36-.89,36.47-19.63,64A1.51,1.51,0,0,1,450.1,448.42Z"/><rect width="10.01" height="52.67" x="196.63" y="102.16" fill="#fb6e38"/><rect width="10.01" height="52.67" x="298.2" y="102.16" fill="#fb6e38"/><ellipse cx="250.46" cy="93.97" fill="#ffc62f" rx="76.16" ry="34.53"/><rect width="275.1" height="50.54" x="116.34" y="135.66" fill="#ffc62f" rx="5.48"/><rect width="300.61" height="265.82" x="103.59" y="215.18" fill="#ffda99"/><rect width="24.63" height="34.06" x="81.34" y="260.63" fill="#ffc62f" rx="11.06"/><rect width="24.63" height="34.06" x="105.98" y="260.63" fill="#ffc62f" rx="11.06"/><rect width="24.63" height="34.06" x="130.61" y="260.63" fill="#ffc62f" rx="11.06"/><rect width="24.63" height="34.06" x="155.25" y="260.63" fill="#ffc62f" rx="11.06"/><rect width="24.63" height="34.06" x="179.88" y="260.63" fill="#ffc62f" rx="11.06"/><rect width="24.63" height="34.06" x="204.52" y="260.63" fill="#ffc62f" rx="11.06"/><rect width="24.63" height="34.06" x="229.15" y="260.63" fill="#ffc62f" rx="11.06"/><rect width="24.63" height="34.06" x="253.79" y="260.63" fill="#ffc62f" rx="11.06"/><rect width="24.63" height="34.06" x="278.42" y="260.63" fill="#ffc62f" rx="11.06"/><rect width="24.63" height="34.06" x="303.06" y="260.63" fill="#ffc62f" rx="11.06"/><rect width="24.63" height="34.06" x="327.69" y="260.63" fill="#ffc62f" rx="11.06"/><rect width="24.63" height="34.06" x="352.32" y="260.63" fill="#ffc62f" rx="11.06"/><rect width="24.63" height="34.06" x="376.96" y="260.63" fill="#ffc62f" rx="11.06"/><rect width="24.63" height="34.06" x="401.59" y="260.63" fill="#ffc62f" rx="11.06"/><polygon fill="#fb6e38" points="426.45 271.46 81.34 271.46 114.39 172.78 393.4 172.78 426.45 271.46"/><path fill="#ffc62f" d="M106 274a1 1 0 01-1-1.3l31.89-100.18a1 1 0 011.91.61l-31.9 100.17A1 1 0 01106 274zM401.59 274a1 1 0 01-1-.72l-29-100.18a1 1 0 111.92-.55l29 100.17A1 1 0 01401.59 274zM377 274a1 1 0 01-1-.76L351.35 173a1 1 0 01.73-1.21 1 1 0 011.21.74l24.64 100.17A1 1 0 01377 274zM352.32 274a1 1 0 01-1-.81L331.77 173a1 1 0 112-.39l19.57 100.18A1 1 0 01352.32 274zM327.69 274a1 1 0 01-1-.88L314.38 172.9a1 1 0 01.87-1.12 1 1 0 011.12.87l12.31 100.18A1 1 0 01327.69 274zM303.05 274a1 1 0 01-1-.93l-6.59-100.18a1 1 0 01.94-1.06 1 1 0 011.06.93l6.58 100.17A1 1 0 01303.05 274zM278.42 274a1 1 0 01-1-1V172.78a1 1 0 012 0V273A1 1 0 01278.42 274zM253.79 274a1 1 0 01-1-1.08L261 172.69a1 1 0 011.07-.91 1 1 0 01.92 1.08L254.78 273A1 1 0 01253.79 274zM229.15 274a1 1 0 01-1-1.12l12.32-100.18a1 1 0 112 .25L230.14 273.07A1 1 0 01229.15 274zM130.62 274a1 1 0 01-1-1.27L158 172.5a1 1 0 111.92.55L131.58 273.22A1 1 0 01130.62 274zM155.25 274a1 1 0 01-1-1.24l24.63-100.17a1 1 0 111.94.47L156.22 273.19A1 1 0 01155.25 274zM179.88 274a1 1 0 01-1-1.2l20-100.17a1 1 0 112 .39l-20 100.18A1 1 0 01179.88 274zM204.52 274a1 1 0 01-1-1.12l12.31-100.18a1 1 0 112 .25L205.51 273.07A1 1 0 01204.52 274z"/><path fill="#fb6e38" d="M222.93,464.57H138.65a.31.31,0,0,1-.31-.31c0-154-.17-144.31.31-144.31h84.28a.31.31,0,0,1,.31.3C223.24,474.22,223.41,464.57,222.93,464.57Z"/><rect width="143.22" height="113.69" x="244.23" y="319.95" fill="#ffc62f" rx="3.58"/><g clip-path="url(#a)"><rect width="127.8" height="101.45" x="251.47" y="326.07" fill="#f7f3f0" rx="3.58"/><polygon fill="#fcfcfc" points="352.32 319.95 235.31 433.64 245.4 447.3 381.61 314.01 352.32 319.95"/><polygon fill="#fcfcfc" points="387.07 326.07 261.94 457.9 271.52 464.56 395.59 337.13 387.07 326.07"/></g><path fill="#baa937" d="M252.83,449.56s-8.12-5.78-5.27-12.58,9.58-3.34,9.58-3.34-2.12-10.71,5.78-12.9,7.9,3.51,7.9,3.51-4.24-15.14,9.51-17.77,18.8,15.14,18.8,15.14,6.28-9.44,15.76-7,5.31,10.09,5.31,10.09,2.2-4.83,8.12-2-1.53,10.92-1.53,10.92,2-4.29,10.53-2.15,3.29,7,3.29,7l11-1.32s-6.58-10.1,0-16.46,16.24.22,16.24.22a7.62,7.62,0,0,1,9-2c5.64,2.34,4.47,9,4.47,9s2.74-.64,5.54,3.6-1.83,13-1.83,13Z"/><rect width="143.87" height="25.46" x="245.4" y="442.91" fill="#fb6e38" rx="1.71"/><rect width="366.94" height="16.43" x="70.43" y="464.57" fill="#ffc62f" rx="1.96"/><rect width="16.24" height="8.34" x="251.47" y="447.29" fill="#f73603"/><rect width="16.24" height="8.34" x="282.78" y="453.73" fill="#f73603"/><rect width="16.24" height="8.34" x="310.95" y="445.39" fill="#f73603"/><rect width="16.24" height="8.34" x="334.94" y="453.73" fill="#f73603"/><rect width="16.24" height="8.34" x="365.37" y="445.39" fill="#f73603"/><rect width="8.19" height="28.38" x="204.52" y="374.29" fill="#ffc62f" rx="3.67"/><path fill="#fb6e38" d="M274.16 405.77c-3.93 0-3.35 6.09.57 6.09S278.07 405.77 274.16 405.77zM289.67 428.3c-3.93 0-3.35 6.09.57 6.09S293.58 428.3 289.67 428.3zM261.87 434.16c-3.93 0-3.35 6.08.57 6.08S265.78 434.16 261.87 434.16zM324.49 435.33c-3.93 0-3.35 6.08.57 6.08S328.4 435.33 324.49 435.33zM316.88 414.55c-3.93 0-3.34 6.09.57 6.09S320.8 414.55 316.88 414.55zM356.68 419.82c-3.93 0-3.35 6.08.56 6.08S360.59 419.82 356.68 419.82zM375.11 433.57c-3.93 0-3.34 6.09.57 6.09S379 433.57 375.11 433.57zM381 418.65c-3.93 0-3.35 6.08.56 6.08S384.88 418.65 381 418.65z"/><ellipse cx="249.41" cy="90.23" fill="#a25439" rx="18.19" ry="26.03" transform="rotate(-43.28 249.396 90.236)"/><path fill="#ffc62f" d="M266.25,109.19a23.14,23.14,0,0,0-1.92-8.21,15.29,15.29,0,0,0-12.72-9.4c-8.49-1.1-12.75-5.42-14.83-8.84A17.49,17.49,0,0,1,235,68.21a1,1,0,0,1,1.88.69,15.63,15.63,0,0,0,1.57,12.8c1.85,3,5.67,6.89,13.37,7.89,16.08,2.09,16.39,19.41,16.39,19.58a1,1,0,0,1-2,0Z"/><path fill="#ff9676" d="M102.81,255.42A6.93,6.93,0,0,1,98,247.17l12-47.3c1.69-6.66,7.36-11.13,12.57-9.55,5.51,1.68,7.29,8.86,5.13,14.93l-16.36,46A6.92,6.92,0,0,1,102.81,255.42Z"/><rect width="14.16" height="81.9" x="144.78" y="345.62" fill="#ff9676" rx="6.36"/><rect width="13.54" height="26.63" x="121.93" y="141.67" fill="#ffda99" rx="6.08"/><path fill="#ffe9c5" d="M116,449.56a6,6,0,0,1-6-5.88l-2.14-124.74a6,6,0,0,1,6-6.09h4.28a6,6,0,0,1,6,6.09L122,443.68A6,6,0,0,1,116,449.56Z"/><circle cx="93.66" cy="281.87" r="7.9" fill="#ffda99"/><rect width="40.05" height="10.1" x="75.99" y="468.3" fill="#ffda99" rx="4.53"/><circle cx="196.48" cy="95.43" r="11.85" fill="#ffda99"/></g></svg>